<svg width="100" height="100" viewBox="0 0 256 256" xmlns="http://www.w3.org/2000/svg">
    <rect fill="#4285F4" x="0" y="0" width="256" height="256" rx="60" />
    <path fill="#FFFFFF"
        d="M108.12 157.824h-7.488c-5.664 0-10.176-4.512-10.176-10.176V108.16H76.352V96.896h14.4v-10.56c0-17.472 9.216-27.552 24.576-27.552 6.912 0 13.824.96 14.208 1.056l-1.536 14.688s-6.048-.576-12.096-.576c-6.144 0-8.64 5.28-8.64 11.712v11.232h21.408l-1.344 11.264h-20.16v38.976c0 1.92 1.536 3.456 3.456 3.456h7.488v11.52zM170.88 156.032c-10.368 0-17.76-5.28-20.928-10.176l10.752-6.72c2.208 3.456 7.2 6.912 11.52 6.912 4.608 0 7.008-2.304 7.008-5.472 0-9.504-27.264-6.048-27.264-26.688 0-10.368 8.448-18.432 20.064-18.432 8.832 0 15.264 3.072 19.008 8.832l-10.368 6.528c-2.304-3.072-5.472-4.704-8.64-4.704-3.456 0-6.24 2.016-6.24 5.088 0 8.832 27.264 5.472 27.264 26.208 0 10.56-8.064 18.624-20.16 18.624zM203.424 155.424c-2.88 0-5.76-.576-8.64-1.728-2.88-1.152-5.28-2.88-7.2-5.28-1.92-2.4-3.456-5.28-4.608-8.448-1.152-3.168-1.728-6.528-1.728-10.08 0-3.648.576-7.008 1.728-10.08 1.152-3.168 2.688-5.952 4.608-8.448 1.92-2.4 4.32-4.128 7.2-5.28 2.88-1.152 5.76-1.728 8.64-1.728 2.88 0 5.76.576 8.64 1.728 2.88 1.152 5.28 2.88 7.2 5.28 1.92 2.4 3.456 5.28 4.608 8.448 1.152 3.168 1.728 6.432 1.728 10.08 0 3.552-.576 6.912-1.728 10.08-1.152 3.168-2.688 6.048-4.608 8.448-1.92 2.4-4.32 4.128-7.2 5.28-2.88 1.152-5.76 1.728-8.64 1.728zm0-12.48c4.608 0 8.064-1.632 10.368-4.896s3.456-7.2 3.456-11.52c0-4.608-1.152-8.448-3.456-11.52-2.304-3.168-5.76-4.896-10.368-4.896s-8.064 1.632-10.368 4.896c-2.304 3.168-3.456 7.2-3.456 11.52 0 4.32 1.152 8.256 3.456 11.52 2.304 3.264 5.76 4.896 10.368 4.896z" />
</svg>
  