<svg
    xmlns="http://www.w3.org/2000/svg"
    width="800"
    height="800"
    viewBox="0 0 24 24">
    <path
        d="M20.52 3.484A11.988 11.988 0 0012.003.003C5.384.002 0 5.384 0 12.001c0 2.117.556 4.194 1.614 6.016l-1.608 5.888 6.03-1.582a11.976 11.976 0 005.972 1.577h.001c6.616 0 11.999-5.382 12-11.999a11.957 11.957 0 00-3.485-8.417zM12.003 22.076h-.001a10.37 10.37 0 01-5.316-1.444l-.38-.229-3.581.939.957-3.496-.246-.38A10.347 10.347 0 011.64 12c0-5.709 4.646-10.355 10.364-10.356a10.35 10.35 0 017.332 3.039 10.34 10.34 0 013.04 7.33c-.001 5.709-4.647 10.363-10.374 10.363zM17.475 14.6c-.297-.149-1.762-.868-2.036-.968-.273-.099-.472-.148-.67.15-.197.297-.768.968-.942 1.165-.173.198-.347.223-.644.074-.297-.149-1.254-.462-2.39-1.474-.884-.789-1.48-1.76-1.653-2.057-.173-.297-.018-.458.13-.606.134-.133.298-.347.447-.52.149-.173.198-.297.298-.495.099-.198.05-.372-.025-.521-.075-.148-.67-1.611-.916-2.207-.242-.582-.488-.502-.67-.512-.173-.008-.372-.01-.571-.01-.198 0-.52.074-.793.372-.273.297-1.042 1.016-1.042 2.48 0 1.463 1.066 2.875 1.215 3.074.149.198 2.098 3.205 5.08 4.494.71.306 1.263.488 1.694.625.712.227 1.36.195 1.872.118.57-.085 1.762-.719 2.012-1.414.248-.695.248-1.29.173-1.414-.074-.124-.272-.198-.57-.347z"
        fill="#25D366"
    />
    <path
        d="M17.475 14.6c-.297-.149-1.762-.868-2.036-.968-.273-.099-.472-.148-.67.15-.197.297-.768.968-.942 1.165-.173.198-.347.223-.644.074-.297-.149-1.254-.462-2.39-1.474-.884-.789-1.48-1.76-1.653-2.057-.173-.297-.018-.458.13-.606.134-.133.298-.347.447-.52.149-.173.198-.297.298-.495.099-.198.05-.372-.025-.521-.075-.148-.67-1.611-.916-2.207-.242-.582-.488-.502-.67-.512-.173-.008-.372-.01-.571-.01-.198 0-.52.074-.793.372-.273.297-1.042 1.016-1.042 2.48 0 1.463 1.066 2.875 1.215 3.074.149.198 2.098 3.205 5.08 4.494.71.306 1.263.488 1.694.625.712.227 1.36.195 1.872.118.57-.085 1.762-.719 2.012-1.414.248-.695.248-1.29.173-1.414-.074-.124-.272-.198-.57-.347z"
        fill="#fff"
    />
</svg>